<svg width="60" height="60" viewBox="0 0 60 60" fill="none" xmlns="http://www.w3.org/2000/svg">
<g clip-path="url(#clip0)">
<path d="M35.0906 50.5882H25.6788C25.0282 50.5882 24.5023 51.1141 24.5023 51.7647C24.5023 52.4153 25.0282 52.9412 25.6788 52.9412H35.0906C35.7411 52.9412 36.267 52.4153 36.267 51.7647C36.267 51.1141 35.7411 50.5882 35.0906 50.5882Z" fill="#505050"/>
<path d="M19.9753 39.9671C20.1918 40.16 20.4706 40.2647 20.7565 40.2647C20.8165 40.2647 20.8765 40.26 20.9353 40.2506C21.2823 40.1976 21.587 39.9918 21.7659 39.6906L24.7447 34.7247C24.9376 34.4059 24.967 34.0141 24.8247 33.6682C24.6823 33.3235 24.3847 33.0659 24.0212 32.9765L12.0929 29.9941C11.5706 29.86 11.0212 30.1071 10.7671 30.5859C10.5141 31.0647 10.6212 31.6541 11.0271 32.0141L19.9753 39.9671ZM21.9082 34.8729L20.4753 37.2635L16.1729 33.4388L21.9082 34.8729Z" fill="#505050"/>
<path d="M35.1788 33.6682C35.0364 34.0141 35.0659 34.4059 35.2588 34.7247L38.2388 39.6906C38.4188 39.9918 38.7235 40.1977 39.0694 40.2506C39.1294 40.26 39.1894 40.2647 39.2482 40.2647C39.5341 40.2647 39.8129 40.16 40.0294 39.9671L48.9753 32.0141C49.3812 31.6541 49.4882 31.0647 49.2341 30.5859C48.9811 30.1071 48.4306 29.8588 47.9094 29.9941L35.9812 32.9765C35.6188 33.0671 35.3212 33.3235 35.1788 33.6682ZM43.8341 33.4388L39.5306 37.2647L38.0976 34.8729L43.8341 33.4388Z" fill="#505050"/>
<path d="M50.2941 0.723685C50.08 0.209567 49.5423 -0.0845506 48.987 0.0201553C48.44 0.126038 48.0412 0.600155 48.0317 1.1578C47.9447 6.59898 47.3035 10.9343 46.347 14.4084C41.6717 10.4284 35.8094 8.23545 29.6212 8.23545C23.7482 8.23545 18.107 10.2496 13.5259 13.9084C12.6447 10.5202 12.0576 6.34251 11.9741 1.1578C11.9647 0.601332 11.5659 0.127214 11.0188 0.0213318C10.4612 -0.0833741 9.92469 0.210744 9.71174 0.724861C9.32469 1.65192 1.37645 20.9802 3.79292 32.9743L3.77763 33.2202C3.75763 33.5178 3.7388 33.8155 3.7388 34.1178C3.7388 48.3896 15.3494 60.0002 29.6212 60.0002C43.2988 60.0002 54.5882 49.3402 55.4165 35.699C59.947 24.1931 50.7117 1.72604 50.2941 0.723685ZM51.847 41.1013C49.6188 47.0896 45.9012 50.6507 43.7376 52.1425V46.506L51.847 41.1013ZM50.0694 6.91663C52.7106 14.7202 56.6506 29.1437 52.6 36.1578C52.4282 36.4555 52.247 36.7413 52.0506 37.0037C52.0482 37.006 52.047 37.0096 52.0447 37.0119C51.8294 37.299 51.5965 37.5649 51.3494 37.8107C51.3247 37.8355 51.2976 37.8555 51.2729 37.8802C51.0576 38.0884 50.8317 38.2813 50.5929 38.4602C50.527 38.5096 50.4576 38.5531 50.3906 38.599C50.1835 38.7425 49.9682 38.8766 49.7447 38.999C49.6588 39.046 49.5706 39.0907 49.4812 39.1343C49.2623 39.2425 49.0341 39.3402 48.8 39.4296C48.7012 39.4672 48.6035 39.506 48.5012 39.5402C48.2541 39.6237 47.9965 39.6931 47.7329 39.7555C47.6353 39.779 47.5412 39.8072 47.4412 39.8284C47.0765 39.9049 46.6988 39.966 46.3023 40.006C44.6129 40.1766 43.0917 40.3413 41.5482 40.6507L34.6588 42.0284C34.4082 42.0755 34.2282 41.9684 34.1423 41.899C34.0576 41.8296 33.9153 41.6755 33.9153 41.4202V31.1637C33.9153 30.8566 34.1317 30.6013 34.3129 30.5684C34.3259 30.5684 34.3517 30.566 34.3859 30.5637C34.407 30.5625 34.4341 30.559 34.4612 30.5566C34.4706 30.5555 34.4776 30.5555 34.487 30.5543C36.1306 30.3978 47.9459 28.5307 50.0694 6.91663ZM29.6212 10.5884C35.5682 10.5884 41.1976 12.7954 45.5565 16.8202C41.6341 27.6202 34.4917 28.199 34.0765 28.2284C34.0188 28.2366 33.9659 28.2578 33.9094 28.2696C32.5412 28.5555 31.5623 29.7402 31.5623 31.1625V41.419C31.5623 41.6425 31.587 41.8625 31.6353 42.0755C31.6412 42.1013 31.6541 42.1249 31.6612 42.1507C31.687 42.2507 31.7259 42.3449 31.7612 42.4413L30.1023 44.6037L28.3365 42.1825C28.3459 42.146 28.3647 42.1131 28.3729 42.0755C28.4212 41.8625 28.4459 41.6425 28.4459 41.419V31.1625C28.4459 29.7425 27.4694 28.5613 26.0094 28.2625C25.9459 28.2496 25.887 28.2284 25.8212 28.2178C25.5035 28.1966 18.1482 27.6037 14.2706 16.3225C18.5541 12.6202 23.9765 10.5884 29.6212 10.5884ZM9.93645 6.91898C12.0612 28.5413 23.8812 30.4002 25.42 30.5437C25.4282 30.5449 25.4341 30.5449 25.4423 30.546C25.4694 30.5484 25.4953 30.5507 25.5153 30.5519C25.5459 30.5543 25.5694 30.5555 25.5788 30.5555C25.8765 30.6002 26.0929 30.8555 26.0929 31.1625V41.419C26.0929 41.6743 25.9506 41.8296 25.8659 41.8978C25.847 41.9131 25.807 41.9296 25.78 41.946C25.6812 42.006 25.5423 42.066 25.3506 42.0272L18.4612 40.6496C16.9165 40.3402 15.3953 40.1755 13.7082 40.0049C13.24 39.9578 12.7988 39.8766 12.3729 39.779C12.28 39.7578 12.1894 39.7343 12.0976 39.7107C11.2388 39.4849 10.4635 39.1555 9.78116 38.7096C9.75292 38.6919 9.72704 38.6719 9.69998 38.6531C8.99763 38.1802 8.38704 37.5896 7.87174 36.8743C7.85998 36.859 7.84939 36.8413 7.8388 36.8249C7.63057 36.5307 7.44586 36.206 7.26821 35.8707C7.18233 35.7107 7.10233 35.5449 7.02469 35.3766C6.8788 35.0602 6.73998 34.7343 6.61763 34.3849C6.58116 34.2802 6.54704 34.1731 6.51292 34.066C6.37057 33.619 6.2388 33.1555 6.13292 32.6578C4.49174 25.079 7.68116 13.5884 9.93645 6.91898ZM15.5035 52.1425C13.34 50.6519 9.62469 47.0919 7.39645 41.1072L15.5035 46.506V52.1425ZM17.5623 54.299C17.7447 54.0296 17.8553 53.7131 17.8553 53.3743V46.1331C17.8553 45.5919 17.5894 45.0837 17.127 44.7613L13.5082 42.3531C15.1165 42.5155 16.5682 42.6731 17.9976 42.959L24.887 44.3366C25.0823 44.3755 25.2788 44.3955 25.4753 44.3955C25.4882 44.3955 25.5012 44.3919 25.5141 44.3919C25.5623 44.3919 25.6094 44.3825 25.6576 44.3802C25.8082 44.3707 25.9565 44.3519 26.1035 44.3202C26.1682 44.306 26.2306 44.2884 26.2929 44.2707C26.4282 44.2319 26.56 44.1813 26.6894 44.1237C26.727 44.1072 26.767 44.099 26.8035 44.0802L29.1247 47.2649C29.3435 47.5649 29.6894 47.7437 30.0612 47.7484C30.0659 47.7484 30.0706 47.7484 30.0753 47.7484C30.4412 47.7484 30.7859 47.5778 31.0082 47.2872L33.4035 44.1649C33.5047 44.2072 33.6082 44.2413 33.7141 44.2719C33.7753 44.2896 33.8365 44.3072 33.8988 44.3202C34.047 44.3531 34.1976 44.3719 34.3506 44.3813C34.3976 44.3849 34.4435 44.3931 34.4917 44.3931C34.5047 44.3931 34.5176 44.3966 34.5306 44.3966C34.7259 44.3966 34.9235 44.3766 35.1188 44.3378L42.0082 42.9602C43.1517 42.7307 44.3329 42.5884 45.5776 42.4566L42.0941 44.7766C41.6506 45.086 41.3847 45.5931 41.3847 46.1343V53.3755C41.3847 53.7143 41.4953 54.0296 41.6765 54.299C38.1435 56.4166 34.0235 57.6472 29.6212 57.6472C25.2129 57.6472 21.0929 56.4166 17.5623 54.299Z" fill="#505050"/>
</g>
<defs>
<clipPath id="clip0">
<rect width="60" height="60" fill="white"/>
</clipPath>
</defs>
</svg>
